<svg width="25" height="25" viewBox="0 0 25 25" fill="none" xmlns="http://www.w3.org/2000/svg">
<g clip-path="url(#clip0_16820_1770_mamun)">
<path d="M7.70007 8.9V8.1C7.70007 6.82696 8.20578 5.60607 9.10596 4.70589C10.0061 3.80572 11.227 3.3 12.5001 3.3C13.7731 3.3 14.994 3.80572 15.8942 4.70589C16.7944 5.60607 17.3001 6.82696 17.3001 8.1V8.9M12.5001 11.7V19.7M8.50007 15.7H16.5001M4.34167 10.724L3.09687 21.924C3.07212 22.1476 3.09481 22.3739 3.16345 22.5882C3.23209 22.8024 3.34514 22.9998 3.49522 23.1674C3.6453 23.335 3.82904 23.469 4.03444 23.5608C4.23985 23.6526 4.46229 23.7 4.68727 23.7H20.3129C20.5378 23.7 20.7603 23.6526 20.9657 23.5608C21.1711 23.469 21.3548 23.335 21.5049 23.1674C21.655 22.9998 21.768 22.8024 21.8367 22.5882C21.9053 22.3739 21.928 22.1476 21.9033 21.924L20.6585 10.724C20.6151 10.3325 20.4289 9.97074 20.1355 9.70799C19.842 9.44525 19.462 9.29998 19.0681 9.3H5.93207C5.53818 9.29998 5.15812 9.44525 4.86467 9.70799C4.57121 9.97074 4.385 10.3325 4.34167 10.724Z" stroke="#fff" stroke-width="1.6"/>
</g>
<defs>
<clipPath id="clip0_16820_1770_mamun">
<rect width="24" height="24" fill="#fff" transform="translate(0.5 0.5)"/>
</clipPath>
</defs>
</svg>
