<svg xmlns="http://www.w3.org/2000/svg" width="12" height="12" viewBox="0 0 12 12" fill="none">
  <path d="M7 3.5H8.16863C8.29092 3.5 8.35207 3.5 8.40962 3.51382C8.46063 3.52606 8.50941 3.54627 8.55414 3.57368C8.6046 3.6046 8.64784 3.64784 8.73431 3.73431L10.7657 5.76569C10.8522 5.85216 10.8954 5.8954 10.9263 5.94586C10.9537 5.99059 10.9739 6.03937 10.9862 6.09038C11 6.14793 11 6.20908 11 6.33137V7.75C11 7.98297 11 8.09946 10.9619 8.19134C10.9112 8.31386 10.8139 8.41119 10.6913 8.46194C10.5995 8.5 10.483 8.5 10.25 8.5M7.75 8.5H7M7 8.5V3.6C7 3.03995 7 2.75992 6.89101 2.54601C6.79513 2.35785 6.64215 2.20487 6.45399 2.10899C6.24008 2 5.96005 2 5.4 2H2.6C2.03995 2 1.75992 2 1.54601 2.10899C1.35785 2.20487 1.20487 2.35785 1.10899 2.54601C1 2.75992 1 3.03995 1 3.6V7.5C1 8.05228 1.44772 8.5 2 8.5M7 8.5H5M5 8.5C5 9.32843 4.32843 10 3.5 10C2.67157 10 2 9.32843 2 8.5M5 8.5C5 7.67157 4.32843 7 3.5 7C2.67157 7 2 7.67157 2 8.5M10.25 8.75C10.25 9.44036 9.69036 10 9 10C8.30964 10 7.75 9.44036 7.75 8.75C7.75 8.05964 8.30964 7.5 9 7.5C9.69036 7.5 10.25 8.05964 10.25 8.75Z" stroke="black" stroke-linecap="round" stroke-linejoin="round"/>
</svg>